<?xml version="1.0" standalone="no"?>
<!DOCTYPE svg PUBLIC "-//W3C//DTD SVG 20010904//EN"
 "http://www.w3.org/TR/2001/REC-SVG-20010904/DTD/svg10.dtd">
<svg version="1.0" xmlns="http://www.w3.org/2000/svg"
 width="1008.000000pt" height="1008.000000pt" viewBox="0 0 1008.000000 1008.000000"
 preserveAspectRatio="xMidYMid meet">
<metadata>
Created by potrace 1.16, written by Peter Selinger 2001-2019
</metadata>
<g transform="translate(0.000000,1008.000000) scale(0.100000,-0.100000)"
fill="#000000" stroke="none">
<path d="M4690 9064 c-19 -2 -87 -9 -150 -15 -480 -45 -1044 -215 -1474 -443
-396 -211 -703 -441 -1028 -767 -140 -141 -179 -187 -189 -219 -7 -22 -9 -43
-4 -48 4 -4 40 29 81 73 55 59 77 76 85 68 13 -13 -18 -71 -54 -100 -12 -10
-29 -29 -38 -43 -9 -14 -30 -40 -48 -59 -32 -34 -36 -47 -25 -75 5 -13 9 -14
20 -5 23 19 26 4 9 -36 -22 -55 -10 -56 36 -2 44 51 74 60 85 25 9 -29 17 -13
39 81 16 66 23 79 69 122 40 38 58 49 84 49 39 0 82 38 82 71 0 19 4 21 32 15
53 -11 55 -21 21 -88 l-32 -62 20 -33 c20 -32 20 -33 2 -39 -10 -3 -52 -21
-93 -39 -41 -19 -84 -36 -95 -37 -11 -2 -21 -12 -23 -23 -2 -11 -14 -30 -25
-43 -15 -16 -23 -39 -24 -70 -2 -26 -4 -54 -4 -62 -1 -8 1 -22 5 -30 3 -9 -4
-27 -19 -44 -14 -16 -25 -30 -25 -30 0 -35 -36 -165 -50 -183 -14 -18 -20 -41
-20 -75 0 -43 4 -53 33 -79 27 -25 38 -29 67 -25 19 3 47 15 62 26 15 11 30
20 33 20 9 0 5 -25 -10 -54 -29 -55 -12 -91 20 -42 26 39 35 83 23 114 -6 16
-8 48 -4 76 6 39 10 45 22 35 8 -6 14 -27 14 -47 0 -35 0 -35 20 -17 11 10 30
23 43 29 14 7 23 22 25 41 5 59 14 79 48 111 20 17 43 47 52 65 17 35 34 40
80 25 31 -10 29 14 -3 44 -33 31 -32 60 6 131 20 38 30 67 27 84 -7 35 72 109
133 125 24 6 58 16 74 22 59 21 100 21 143 -1 68 -35 87 -29 117 33 33 70 130
157 217 196 24 10 54 33 66 49 22 30 55 52 99 65 16 5 30 -1 55 -23 28 -24 42
-29 82 -29 31 1 53 -4 60 -13 16 -20 63 -49 80 -49 9 0 22 14 31 30 17 34 36
37 88 15 34 -14 36 -14 42 5 5 15 15 20 41 20 37 0 45 -18 19 -40 -23 -19 -18
-27 18 -32 17 -3 39 -8 48 -12 11 -5 19 1 27 19 9 20 19 25 47 25 30 0 35 -4
40 -27 18 -86 19 -87 64 -98 25 -6 50 -20 58 -32 13 -19 11 -24 -17 -54 -25
-28 -32 -31 -40 -19 -5 8 -10 26 -10 39 0 21 -5 17 -31 -24 -27 -43 -30 -52
-19 -70 7 -11 18 -27 23 -36 11 -18 3 -49 -13 -49 -6 0 -15 11 -20 25 -5 14
-17 28 -25 31 -8 4 -15 12 -15 20 0 8 -4 14 -10 14 -14 0 -13 -11 5 -55 15
-34 14 -40 -2 -75 -10 -21 -26 -41 -36 -43 -12 -4 -17 -14 -17 -34 1 -15 0
-37 -2 -48 -2 -17 4 -21 37 -25 42 -5 44 -10 30 -62 -7 -27 -6 -28 35 -28 42
0 77 -25 105 -73 6 -10 29 -21 54 -25 58 -10 62 -26 11 -41 -31 -9 -45 -20
-54 -43 l-13 -30 -94 -3 c-52 -1 -106 -8 -121 -15 -36 -17 -60 -70 -56 -122 3
-39 6 -43 38 -52 19 -5 60 -10 90 -11 75 -3 78 -4 56 -20 -27 -20 -105 -19
-128 2 -16 14 -23 15 -59 3 -46 -15 -119 -65 -119 -80 0 -6 14 -10 30 -10 17
0 30 -4 30 -10 0 -5 -7 -10 -15 -10 -9 0 -27 -8 -42 -17 -25 -17 -27 -17 -41
5 -14 21 -42 31 -42 14 0 -11 35 -57 86 -115 33 -37 48 -47 73 -47 17 0 31 -4
31 -8 0 -5 13 -23 29 -41 25 -28 34 -32 61 -26 19 4 36 2 45 -5 12 -10 24 -7
59 14 47 27 65 22 46 -13 -18 -34 -11 -49 28 -61 20 -7 41 -16 45 -20 13 -12
-2 -34 -44 -63 -23 -16 -47 -44 -56 -65 -8 -20 -25 -46 -38 -58 -12 -11 -24
-26 -26 -33 -3 -7 -20 -16 -39 -20 -29 -6 -36 -12 -46 -46 -8 -31 -20 -44 -60
-67 -65 -37 -84 -45 -117 -53 -39 -8 -45 -32 -14 -63 l26 -26 33 36 c29 31 36
34 60 26 22 -8 33 -6 54 11 44 35 86 26 97 -19 7 -29 78 -100 83 -85 13 32 46
75 59 75 9 0 29 10 45 21 20 15 36 20 54 15 14 -3 37 -9 50 -12 22 -5 26 -2
33 27 5 20 18 38 31 44 12 5 22 20 24 35 2 17 13 29 35 39 19 9 36 26 42 43 7
20 19 30 40 34 l30 6 -30 25 c-16 14 -27 29 -23 34 3 5 -6 19 -20 31 -17 15
-23 27 -18 36 14 21 111 -35 130 -75 12 -25 22 -33 41 -33 16 0 31 -8 39 -20
18 -29 32 -16 32 28 0 60 -10 80 -40 87 -15 3 -35 14 -44 24 -21 23 -34 91
-17 91 6 0 11 -3 11 -7 0 -13 95 -55 116 -51 19 3 35 58 17 58 -5 0 -18 6 -28
14 -19 14 -19 15 -1 34 14 16 16 28 10 54 -4 18 -8 56 -9 83 0 28 -4 62 -9 78
-7 24 -6 27 14 27 30 0 60 18 60 36 0 9 -18 33 -40 55 -22 22 -40 44 -40 49 0
4 -3 16 -7 25 -5 15 -1 16 25 10 22 -4 32 -3 32 6 0 15 -39 79 -49 79 -4 0
-15 -16 -24 -36 -15 -31 -20 -34 -33 -23 -28 23 -36 59 -19 85 8 13 12 30 9
39 -10 24 -39 13 -42 -15 -5 -38 -17 -43 -56 -25 -45 22 -47 51 -6 90 l30 29
-21 22 -21 23 41 11 c23 6 41 15 41 20 0 6 6 10 14 10 14 0 26 -29 26 -68 0
-17 5 -23 18 -20 11 2 21 20 29 52 7 27 14 51 17 54 3 3 25 0 47 -7 44 -13 65
-3 54 27 -13 35 -16 90 -6 96 6 4 11 33 11 64 0 55 2 58 29 69 27 10 30 15 33
64 l3 54 43 3 c35 3 45 8 52 28 11 28 35 31 85 10 22 -9 68 -15 122 -15 49 0
93 0 99 0 6 -1 17 -15 24 -32 15 -36 74 -69 123 -69 22 0 44 9 63 25 16 14 46
30 67 36 29 7 37 15 37 32 0 43 -29 64 -106 78 -90 17 -103 36 -60 86 21 24
27 26 43 15 34 -23 44 -24 63 -7 25 22 48 13 56 -22 12 -56 36 -123 43 -123 4
0 13 11 19 25 8 16 23 28 42 31 25 5 30 11 30 35 0 17 5 29 13 29 7 0 18 9 25
20 20 32 37 23 50 -25 16 -59 15 -65 -4 -65 -27 0 -9 -24 26 -34 l33 -10 -7
-60 c-3 -34 -8 -71 -12 -83 -5 -17 3 -31 33 -60 56 -54 108 -80 128 -63 21 17
42 6 49 -27 13 -58 41 -90 85 -97 31 -5 44 -13 55 -35 13 -25 13 -31 0 -49
-17 -25 -10 -88 12 -100 11 -6 11 -16 3 -45 -13 -50 -6 -58 43 -50 l41 6 -6
-39 c-6 -34 5 -128 20 -174 4 -13 6 -12 17 3 17 22 26 22 26 -2 0 -12 -17 -29
-45 -45 -47 -28 -55 -40 -31 -49 20 -8 57 4 80 24 25 24 39 14 31 -23 -8 -35
16 -68 50 -68 16 0 26 10 38 40 17 43 37 50 71 25 22 -17 56 -20 56 -6 0 5
-12 32 -26 59 -25 49 -26 92 -3 92 20 0 69 -31 79 -50 12 -22 30 -27 30 -8 0
6 10 22 22 35 l21 23 -26 24 c-15 14 -27 32 -27 40 0 8 -9 20 -20 26 -34 18
-24 90 13 90 26 0 85 -40 93 -62 3 -9 -3 -29 -12 -43 -16 -25 -16 -27 2 -44
15 -14 44 -19 134 -24 62 -4 118 -11 123 -16 14 -14 -8 -46 -48 -71 -42 -26
-48 -64 -13 -76 12 -4 35 -20 51 -36 24 -24 28 -34 23 -62 -8 -39 1 -66 20
-66 8 0 14 -9 14 -20 0 -36 45 -54 146 -58 86 -4 95 -6 109 -29 14 -21 23 -24
63 -22 26 2 46 0 45 -4 -2 -4 -3 -11 -3 -17 0 -5 -14 -17 -31 -26 -26 -13 -30
-20 -25 -42 12 -49 11 -56 -6 -60 -10 -2 -23 9 -34 27 -20 34 -51 41 -61 15
-3 -9 -1 -25 5 -35 18 -28 15 -56 -9 -88 -32 -44 -6 -68 42 -38 17 10 23 9 39
-10 22 -28 32 -29 48 -3 7 11 21 20 32 20 10 0 24 -9 30 -20 17 -32 28 -23 20
18 -13 73 -35 80 -87 30 l-33 -32 0 30 c0 44 28 64 112 80 97 18 105 18 132
-9 12 -13 41 -28 64 -35 33 -10 43 -19 52 -48 11 -32 15 -35 41 -29 17 4 29 2
29 -3 0 -6 17 -16 38 -23 20 -7 59 -32 87 -56 27 -23 65 -48 85 -54 19 -6 42
-19 50 -28 8 -9 27 -27 43 -40 l27 -25 29 35 29 34 36 -18 c41 -19 66 -22 66
-7 0 6 7 10 15 10 18 0 18 -2 4 -34 -9 -19 -9 -32 0 -54 10 -24 10 -34 0 -50
-10 -16 -10 -26 -2 -44 7 -13 15 -34 18 -47 9 -31 21 -16 33 42 7 36 6 59 -4
94 -20 67 -17 133 7 133 20 0 30 -50 39 -199 9 -151 11 -161 35 -185 28 -28
29 -36 15 -85 -7 -25 -5 -42 5 -68 20 -48 20 -48 -20 -72 -20 -11 -41 -35 -50
-56 -8 -19 -22 -51 -30 -71 -18 -41 -29 -38 -32 9 -3 55 -15 127 -22 127 -22
0 -30 -27 -24 -85 7 -79 -4 -154 -23 -162 -8 -3 -25 4 -38 16 -30 29 -36 27
-36 -13 0 -26 -5 -35 -21 -39 -18 -5 -20 -11 -15 -39 20 -97 19 -105 -15 -147
-18 -23 -38 -41 -45 -41 -7 0 -18 -9 -24 -20 -17 -32 -49 -25 -66 15 -9 23
-21 35 -34 35 -11 0 -20 -1 -20 -2 0 -2 7 -24 14 -50 12 -39 12 -49 1 -58 -10
-8 -20 -1 -45 30 -51 65 -100 48 -100 -35 0 -41 -21 -40 -59 3 -25 29 -47 43
-72 47 -32 6 -38 12 -48 46 -20 66 8 83 37 22 l17 -38 70 3 c100 5 116 23 68
72 -16 15 -46 48 -68 74 -36 41 -41 44 -52 29 -19 -25 -27 -8 -13 27 11 28 11
33 -8 50 -20 19 -20 19 -27 -23 -12 -68 -31 -97 -65 -97 -37 0 -48 18 -21 36
24 17 28 44 6 44 -20 0 -19 9 11 74 15 33 24 69 22 88 -3 28 -10 37 -53 58
-46 23 -50 29 -63 80 -7 30 -17 59 -21 63 -4 4 -16 -10 -26 -33 -10 -22 -22
-40 -27 -40 -23 0 2 141 38 212 36 71 32 78 -28 53 -16 -7 -17 -1 -11 69 7 85
-4 98 -37 44 -31 -51 -36 -96 -15 -135 10 -18 15 -36 12 -39 -10 -11 -95 6
-107 21 -17 20 -26 19 -49 -7 -19 -20 -22 -20 -39 -5 -25 23 -47 21 -90 -8
-20 -14 -41 -25 -46 -25 -5 0 -6 22 -2 49 4 28 2 52 -3 55 -5 4 -25 -1 -44
-10 -33 -16 -35 -16 -75 11 -22 15 -46 24 -51 20 -7 -4 -11 -46 -11 -103 0
-105 -2 -109 -42 -134 -38 -24 -57 -114 -34 -160 27 -52 21 -67 -36 -93 -29
-14 -61 -25 -70 -25 -37 0 -8 -76 37 -100 23 -12 26 -19 21 -48 -3 -18 0 -44
6 -58 10 -20 8 -28 -10 -47 -12 -13 -22 -29 -22 -35 0 -7 -5 -12 -11 -12 -7 0
-9 9 -5 23 17 58 18 87 3 110 -8 13 -17 34 -19 48 -2 18 -8 23 -23 21 -11 -2
-24 -10 -28 -18 -4 -8 -22 -14 -39 -14 -26 0 -30 -3 -25 -22 2 -13 7 -30 11
-39 5 -11 -1 -21 -18 -32 -23 -15 -26 -15 -58 6 -26 18 -35 32 -42 70 -4 27
-6 51 -2 54 3 4 20 -3 36 -15 42 -31 55 -27 29 9 -18 26 -19 33 -8 40 8 5 20
9 28 9 11 0 11 3 1 15 -7 8 -8 15 -3 15 5 0 18 6 29 14 18 14 18 16 -21 55
-59 62 -84 54 -44 -13 24 -41 18 -44 -28 -16 -31 18 -33 23 -33 75 0 65 -16
78 -60 51 -26 -15 -30 -15 -58 1 -29 17 -31 17 -52 -2 -21 -19 -23 -19 -52 -2
-45 26 -101 32 -117 13 -21 -25 -37 -19 -53 22 l-14 37 -22 -41 c-12 -23 -28
-44 -36 -47 -27 -10 -27 26 -1 77 23 43 24 51 11 64 -13 13 -18 12 -41 -7 -33
-25 -48 -19 -40 18 7 32 -11 51 -67 74 -40 17 -41 27 -11 72 18 26 17 32 -7
38 -29 8 -26 37 5 37 33 0 32 14 -4 40 l-30 21 -11 -21 c-6 -11 -17 -20 -25
-20 -17 0 -20 35 -5 45 15 9 12 65 -4 71 -8 3 -20 19 -26 35 l-13 30 -22 -21
c-25 -23 -41 -26 -48 -6 -8 20 13 36 45 36 31 0 36 17 16 49 -9 15 -7 24 10
46 29 36 28 41 -10 54 -17 6 -37 20 -45 31 -8 11 -30 27 -49 35 -24 10 -32 18
-28 30 5 12 14 14 35 10 37 -8 52 18 38 69 -5 20 -7 41 -4 46 10 16 41 11 60
-10 10 -11 21 -20 24 -20 7 0 31 73 31 95 0 19 -4 19 -41 -1 -24 -12 -34 -13
-45 -3 -21 17 -3 34 56 53 70 23 77 21 85 -21 8 -46 18 -32 35 51 7 36 8 62 3
67 -6 6 -40 -6 -88 -32 -77 -40 -79 -41 -106 -25 -17 10 -38 14 -53 10 -14 -3
-41 -1 -61 6 -28 9 -39 9 -51 -1 -12 -10 -25 -10 -66 0 -44 12 -52 11 -66 -4
-16 -15 -15 -18 11 -39 15 -12 27 -30 27 -40 0 -10 11 -27 25 -38 14 -11 25
-27 25 -36 0 -12 3 -13 12 -4 7 7 39 12 75 12 70 0 84 -12 65 -55 -10 -20 -62
-55 -84 -55 -5 0 -28 18 -53 41 -24 22 -49 38 -55 34 -15 -9 -12 -52 5 -59 8
-3 15 -13 15 -22 0 -15 -2 -15 -25 0 -46 30 -56 22 -49 -36 4 -29 8 -55 10
-57 2 -2 16 1 30 8 21 9 30 9 43 -2 9 -8 24 -17 34 -20 9 -4 17 -11 17 -17 0
-19 -30 -23 -49 -6 -25 22 -31 20 -31 -10 0 -25 -3 -26 -34 -21 -40 6 -90 -20
-99 -53 -4 -17 2 -26 29 -42 40 -24 45 -43 9 -34 -43 11 -42 -38 2 -82 20 -21
16 -27 -26 -47 -37 -16 -101 -23 -146 -14 -15 3 -21 -2 -23 -18 -4 -29 -37
-31 -52 -3 -15 29 -28 25 -38 -12 l-8 -32 -42 38 -42 38 -43 -47 c-41 -44 -46
-46 -68 -34 -33 17 -107 94 -111 115 -2 15 -13 17 -68 16 -107 -3 -137 -11
-166 -45 -15 -17 -31 -42 -37 -54 -8 -18 -15 -21 -36 -16 -14 3 -27 10 -29 15
-2 4 -11 8 -19 8 -10 0 -13 -6 -9 -16 8 -21 -11 -44 -35 -44 -12 0 -23 -10
-29 -25 -7 -18 -17 -25 -35 -25 -22 0 -26 -4 -23 -22 2 -15 11 -24 26 -26 26
-4 28 -19 6 -43 -17 -19 -11 -39 12 -39 16 0 19 -16 4 -25 -18 -11 -10 -26 21
-37 28 -10 30 -13 25 -44 -4 -18 -2 -35 4 -39 5 -3 10 -17 10 -30 0 -20 8 -26
48 -38 30 -9 46 -18 44 -27 -2 -8 -7 -34 -12 -58 -4 -24 -18 -54 -30 -67 -22
-24 -23 -34 -4 -97 9 -29 -13 -21 -33 12 -11 19 -25 30 -40 30 -13 0 -23 6
-23 13 0 6 -20 23 -45 36 -36 19 -48 22 -58 12 -9 -10 -6 -18 18 -37 l30 -24
-52 -50 c-30 -28 -66 -53 -83 -56 -33 -7 -35 -12 -18 -49 9 -21 9 -31 0 -46
-7 -10 -12 -25 -12 -33 0 -8 -9 -18 -20 -21 -24 -8 -26 -28 -5 -49 8 -8 15
-20 15 -26 0 -7 -7 -9 -15 -6 -8 3 -22 9 -30 12 -11 4 -19 -3 -26 -25 -8 -23
-17 -31 -35 -31 -32 0 -31 27 1 42 40 18 31 36 -17 35 -24 -1 -51 2 -60 7 -13
6 -18 4 -18 -8 0 -8 -9 -20 -20 -26 -26 -14 -26 -46 0 -60 26 -14 25 -40 -2
-85 -20 -34 -20 -39 -6 -63 9 -15 21 -46 27 -69 9 -32 17 -43 31 -43 24 0 25
16 6 67 -8 21 -14 45 -14 53 0 8 -1 20 -2 25 -10 43 29 48 60 8 11 -16 33 -35
47 -44 20 -11 32 -32 47 -81 15 -47 30 -73 50 -89 27 -22 29 -22 42 -5 12 17
13 17 20 -8 3 -15 19 -33 35 -42 16 -8 29 -19 29 -24 0 -6 10 -10 23 -10 20 0
19 2 -13 32 -27 26 -31 34 -17 36 18 4 59 -23 76 -51 10 -14 7 -19 -13 -27
-40 -15 -48 -65 -20 -121 26 -52 85 -109 114 -109 10 0 36 20 57 45 43 52 69
58 79 18 4 -15 14 -34 22 -42 9 -10 12 -26 9 -49 -4 -19 -1 -42 6 -53 9 -15 9
-23 0 -39 -7 -11 -10 -32 -7 -50 5 -23 3 -30 -9 -30 -9 0 -19 5 -23 11 -12 19
-23 -12 -17 -48 5 -27 1 -37 -15 -49 -20 -14 -24 -26 -37 -121 -5 -40 -3 -43
27 -59 51 -26 51 -36 6 -78 l-41 -38 23 -18 c23 -17 21 -40 -5 -40 -22 0 -28
-20 -8 -27 10 -3 26 -13 37 -22 17 -15 19 -14 33 6 9 13 22 23 29 23 8 0 14 9
14 20 0 21 16 26 39 11 24 -15 51 -137 39 -177 -11 -41 -4 -68 25 -94 30 -29
15 -35 -37 -15 -60 23 -96 14 -96 -23 0 -15 -4 -34 -10 -42 -7 -12 -12 -12
-37 0 -15 8 -31 15 -35 17 -3 2 -25 -13 -48 -32 -47 -39 -43 -38 -89 -25 -41
11 -66 0 -75 -34 -6 -24 -30 -36 -77 -36 -29 0 -49 -17 -49 -42 0 -25 -40 -23
-76 4 -16 12 -49 44 -74 71 -52 58 -154 137 -175 137 -26 0 -16 -32 21 -64 93
-81 194 -184 194 -199 0 -27 -22 -19 -63 22 -21 21 -67 58 -102 82 -35 24 -70
55 -76 69 -26 52 -61 91 -94 104 -23 10 -36 24 -45 50 -6 19 -19 38 -29 41
-25 8 -57 45 -68 80 -7 21 -23 37 -56 54 -48 24 -56 38 -35 59 10 10 6 18 -20
38 -17 14 -32 30 -32 35 0 16 26 10 45 -11 27 -30 34 -24 22 15 -13 43 -9 48
32 34 43 -15 48 -7 22 36 -23 40 -27 85 -10 117 10 18 6 25 -26 53 -34 28 -37
33 -25 54 21 40 -3 44 -51 9 -24 -18 -64 -37 -88 -44 -25 -6 -51 -20 -59 -32
-13 -19 -11 -24 22 -57 20 -20 34 -40 31 -46 -13 -20 -43 -7 -74 31 -38 47
-64 53 -59 13 2 -20 10 -29 33 -35 41 -10 55 -33 55 -89 0 -43 2 -47 28 -52
40 -8 66 -31 59 -51 -5 -13 -11 -15 -26 -7 -10 6 -43 12 -72 15 -30 2 -58 5
-64 6 -28 6 -44 -4 -74 -46 -19 -25 -44 -50 -57 -56 -17 -8 -24 -19 -24 -38 0
-21 -8 -30 -40 -44 -45 -20 -52 -36 -15 -36 55 0 89 -24 110 -79 11 -28 29
-63 40 -78 19 -23 24 -24 44 -13 20 10 26 9 45 -9 14 -13 36 -21 59 -21 39 0
47 -8 56 -54 5 -20 14 -32 26 -34 71 -11 93 -42 55 -77 -11 -10 -20 -26 -20
-36 0 -38 -20 -28 -31 16 -14 55 -35 67 -59 35 -17 -23 -20 -23 -59 -10 -23 7
-44 10 -47 7 -13 -13 27 -57 59 -65 26 -7 33 -14 35 -39 4 -37 -25 -98 -62
-132 l-25 -24 -12 27 c-14 30 -22 32 -39 11 -17 -20 -30 -19 -57 7 -21 20 -23
20 -23 3 0 -11 17 -36 37 -57 42 -43 39 -56 -8 -39 -22 8 -36 8 -43 1 -17 -17
-25 -12 -84 43 -76 71 -121 107 -134 107 -7 0 -9 -18 -5 -51 l6 -51 -40 37
c-22 20 -65 52 -94 71 -65 41 -81 65 -64 96 11 20 8 26 -25 53 -21 16 -51 41
-66 55 l-29 25 8 132 c3 73 12 138 18 144 8 8 22 7 52 -2 36 -11 43 -10 61 6
16 14 23 15 34 6 20 -17 35 -6 52 36 20 48 4 107 -35 128 -29 14 -71 85 -71
118 0 10 7 20 15 23 18 7 20 48 3 61 -7 6 -26 13 -42 17 -45 11 -81 41 -111
94 -41 70 -65 94 -82 81 -7 -6 -13 -20 -13 -31 0 -10 -10 -22 -21 -27 -20 -7
-18 -10 27 -47 83 -67 84 -72 12 -88 -21 -5 -28 -12 -28 -31 0 -22 -3 -24 -30
-18 -23 4 -30 2 -30 -11 0 -21 2 -22 -66 19 -98 59 -134 60 -90 2 39 -51 35
-64 -25 -69 -28 -3 -54 -10 -58 -15 -3 -6 -16 -15 -28 -22 -30 -16 -39 3 -12
28 26 24 21 56 -15 98 l-24 28 -7 -27 c-4 -16 -5 -35 -1 -43 3 -9 0 -15 -10
-15 -21 0 -28 26 -17 63 8 26 5 41 -16 85 -28 57 -39 60 -60 18 -25 -52 -26
-104 -2 -136 25 -34 28 -78 6 -86 -47 -18 -225 177 -225 247 0 14 -9 34 -21
45 -12 10 -29 34 -39 53 -16 33 -18 34 -24 13 -10 -30 -21 -28 -49 11 -37 49
-49 77 -41 95 4 9 6 23 5 30 -1 8 3 20 9 27 13 16 5 35 -14 35 -19 0 -40 29
-60 83 -19 50 -29 57 -45 30 -8 -16 -11 -15 -21 8 -9 21 -17 25 -41 21 -26 -4
-31 0 -44 32 -10 24 -17 80 -19 157 -3 68 -9 126 -16 133 -6 8 -10 29 -10 47
2 56 -12 112 -36 145 -42 55 -54 98 -54 198 0 52 -3 101 -6 110 -9 23 -29 20
-47 -7 -13 -18 -18 -20 -26 -8 -7 11 -4 22 10 39 15 19 16 28 8 38 -18 22 -27
17 -50 -29 -22 -42 -22 -42 -32 -17 -5 14 -15 36 -22 50 -7 14 -16 40 -20 57
-3 18 -11 33 -17 33 -21 0 3 -395 38 -640 164 -1132 818 -2167 1775 -2808 540
-361 1125 -579 1794 -669 190 -25 792 -25 990 0 1090 140 2058 685 2736 1542
473 598 764 1312 855 2100 22 188 25 643 6 825 -100 955 -489 1798 -1141 2473
-577 597 -1328 1006 -2151 1171 -261 53 -414 67 -740 71 -168 2 -321 1 -340
-1z m-692 -692 c23 -4 12 -21 -23 -33 -39 -15 -41 -20 -20 -52 8 -12 11 -27 7
-33 -10 -16 -178 -29 -186 -15 -11 17 34 130 53 133 17 3 148 3 169 0z m-566
-100 c7 -10 26 -22 41 -26 38 -9 30 -27 -19 -41 -35 -10 -37 -12 -16 -19 30
-10 28 -19 -8 -33 -20 -7 -30 -18 -30 -32 0 -11 -5 -23 -11 -27 -17 -10 -30
17 -24 49 6 33 -9 67 -30 67 -23 0 -29 21 -11 38 16 16 19 15 36 -5 22 -28 30
-29 30 -4 0 26 10 51 21 51 4 0 14 -8 21 -18z m308 -247 c31 -33 22 -49 -52
-90 -56 -30 -56 -30 -93 -12 -30 14 -35 21 -29 40 23 78 125 114 174 62z
m-1000 -51 c0 -20 8 -17 34 13 20 24 26 25 40 14 22 -18 21 -21 -21 -75 l-36
-47 -24 23 -23 22 -54 -27 c-29 -15 -59 -27 -65 -27 -7 0 -28 -7 -46 -16 -19
-9 -42 -14 -52 -12 -14 3 -8 13 32 50 28 26 65 55 83 65 32 17 34 17 43 1 15
-27 27 -22 44 18 13 31 17 34 30 24 8 -7 15 -19 15 -26z m3273 -114 c25 -12
31 -12 57 3 40 24 50 21 50 -12 0 -17 5 -33 10 -36 16 -10 11 -35 -7 -35 -30
0 16 -39 54 -46 28 -5 33 -11 31 -28 -2 -16 -9 -20 -28 -18 -14 2 -30 8 -37
14 -7 5 -18 8 -24 6 -6 -2 4 -16 24 -31 33 -25 35 -30 30 -69 -3 -24 -10 -51
-15 -62 -9 -17 -12 -16 -42 13 -19 19 -42 31 -58 31 -18 0 -29 7 -33 20 -11
36 -35 24 -35 -18 0 -21 -3 -42 -7 -45 -10 -10 -33 13 -33 34 0 28 38 86 60
92 11 3 20 10 20 16 0 16 -36 13 -71 -5 -30 -15 -34 -14 -90 13 -32 15 -59 34
-59 42 0 9 7 11 23 6 56 -18 80 -18 93 0 11 15 16 16 29 5 11 -9 19 -10 26 -3
15 15 2 51 -22 58 -11 4 -19 10 -17 13 2 4 10 19 18 35 7 15 16 26 19 24 3 -1
19 -9 34 -17z m-1624 -409 c3 0 -6 -13 -20 -27 -24 -25 -24 -26 -5 -40 18 -13
18 -15 4 -26 -19 -14 -36 -88 -21 -88 5 0 24 18 42 40 41 51 71 54 71 5 0 -19
-5 -46 -12 -60 -14 -31 -6 -40 21 -26 11 7 23 26 27 46 7 40 23 44 50 14 19
-21 19 -22 -3 -36 -26 -18 -30 -33 -8 -33 8 0 15 -6 15 -13 0 -19 -45 -41 -66
-33 -23 9 -64 -37 -57 -64 6 -23 3 -24 -48 -9 -36 11 -38 14 -39 53 -2 103 0
98 -31 91 -24 -6 -29 -3 -29 13 0 35 -11 52 -34 52 -29 0 -78 -57 -71 -81 4
-13 1 -19 -9 -19 -9 0 -16 -4 -16 -10 0 -5 -9 -10 -21 -10 -13 0 -19 5 -16 13
18 49 17 56 -10 81 -25 24 -26 26 -7 31 10 4 28 11 39 15 50 21 110 27 139 15
17 -7 18 -4 11 52 l-7 60 54 -2 c29 -2 55 -3 57 -4z m3230 -223 c40 -29 45
-30 77 -19 33 12 37 11 71 -19 55 -48 80 -57 97 -35 12 16 16 17 30 6 9 -7 16
-22 16 -32 0 -21 31 -44 73 -54 15 -4 27 -13 27 -21 0 -10 13 -14 43 -14 l43
0 12 -60 c14 -76 43 -124 93 -156 45 -28 49 -41 15 -54 -14 -5 -30 -18 -36
-30 -8 -15 -17 -19 -34 -14 -34 8 -39 -9 -20 -69 16 -51 16 -59 0 -130 -9 -41
-24 -81 -32 -87 -7 -7 -14 -19 -14 -26 0 -10 -12 -14 -39 -14 -29 0 -46 -7
-69 -30 -39 -37 -67 -38 -141 -4 -48 21 -63 34 -90 80 -19 30 -35 54 -37 54
-3 0 -13 -6 -24 -12 -28 -18 -52 -1 -70 50 -8 23 -20 42 -27 42 -13 0 -19 16
-28 82 -4 34 -16 58 -45 91 -22 25 -40 51 -40 59 0 7 11 30 25 50 14 20 25 39
25 42 0 13 -35 5 -52 -11 -17 -16 -22 -16 -45 -3 -50 29 -53 47 -26 133 26 85
42 94 57 34 8 -31 14 -37 37 -37 41 0 44 16 9 46 -35 32 -39 70 -11 105 19 24
20 24 64 8 51 -18 52 -15 14 49 -25 43 -6 43 52 0z m898 -307 c8 -19 32 -60
52 -90 73 -108 171 -271 177 -296 9 -37 -26 -33 -48 5 -22 39 -44 47 -68 25
-18 -16 -19 -15 -25 32 -8 52 -36 127 -53 137 -6 3 -20 32 -32 63 -11 31 -39
87 -61 125 -50 86 -47 119 8 67 19 -19 42 -49 50 -68z m-4382 -72 c4 -13 1
-27 -9 -38 -23 -26 -21 -49 2 -28 10 10 23 17 29 17 6 0 16 7 23 15 17 21 54
19 75 -5 21 -24 41 -26 49 -5 3 8 12 15 20 15 26 0 96 -41 96 -56 0 -22 31
-17 37 6 3 11 11 20 19 20 24 0 27 -22 5 -51 -11 -15 -21 -38 -21 -49 0 -23
-45 -70 -66 -70 -16 0 -19 16 -4 25 15 9 12 47 -2 43 -7 -3 -19 -17 -26 -31
-17 -35 -27 -34 -67 8 -26 28 -34 32 -39 20 -9 -23 18 -58 64 -84 44 -24 48
-32 25 -51 -14 -11 -23 -7 -60 30 -38 37 -46 41 -60 30 -26 -22 -41 2 -25 40
12 28 11 33 -9 51 -11 11 -21 25 -21 32 -1 7 -6 5 -14 -5 -17 -23 -70 -10 -74
18 -2 10 -8 29 -14 40 -8 18 -6 28 13 53 26 36 45 40 54 10z m4336 -560 c78
-77 92 -100 83 -134 -7 -29 -32 -33 -41 -7 -20 60 -46 102 -64 102 -19 0 -18
-2 6 -43 29 -50 23 -68 -12 -35 -20 19 -25 20 -33 8 -5 -8 -10 -33 -10 -56 0
-33 6 -46 30 -67 49 -44 37 -62 -19 -29 -22 12 -35 29 -42 57 -6 22 -18 52
-27 67 -12 21 -13 32 -5 51 6 13 9 36 6 51 -5 23 -1 28 26 39 l31 11 -26 28
c-17 17 -24 33 -20 44 8 20 14 16 117 -87z m433 -232 c31 -70 74 -227 85 -307
6 -47 5 -77 -5 -109 -10 -33 -10 -49 -2 -65 6 -11 10 -46 9 -79 -1 -44 5 -72
25 -118 34 -76 22 -97 -25 -43 -49 55 -58 80 -38 102 25 28 21 66 -14 128
l-32 55 21 19 c13 12 18 27 15 40 -8 30 -23 35 -23 8 0 -13 -5 -30 -10 -38
-13 -20 -40 46 -47 115 -5 50 -4 53 21 59 23 6 26 12 26 46 0 23 -15 78 -35
127 -19 48 -35 97 -35 110 0 39 38 9 64 -50z m-489 -80 c8 -13 30 -81 47 -151
25 -97 30 -131 22 -144 -17 -27 -37 -20 -46 16 -9 35 -17 39 -37 20 -10 -11
-15 -9 -27 6 -17 24 -18 60 -2 85 9 16 8 27 -7 61 -18 40 -18 41 3 56 18 12
20 19 12 40 -13 33 -13 34 5 34 8 0 21 -11 30 -23z m-3976 -819 c-12 -44 -13
-41 17 -73 21 -23 28 -25 35 -14 5 8 9 18 9 23 0 17 33 46 50 46 14 0 19 -13
24 -67 11 -102 12 -105 54 -101 19 1 37 -2 39 -8 4 -13 -53 -71 -89 -90 -30
-16 -29 -44 2 -44 11 0 21 -4 24 -9 9 -15 -22 -33 -44 -26 -12 4 -28 1 -37 -6
-15 -14 -26 -5 -53 41 -8 13 -11 12 -23 -4 -10 -13 -16 -15 -21 -8 -4 7 -16
12 -27 12 -25 0 -25 31 1 55 27 25 25 32 -10 40 -35 8 -39 27 -9 46 17 12 19
18 11 40 -7 16 -7 31 0 43 6 10 8 40 5 67 -5 39 -3 50 11 58 33 19 41 13 31
-21z m3751 -205 c0 -9 -10 -28 -22 -41 l-23 -25 22 12 c12 6 29 8 38 5 14 -6
14 -8 0 -31 -16 -23 -15 -26 3 -46 16 -17 18 -26 11 -40 -7 -12 -6 -23 5 -39
15 -21 14 -23 -24 -45 -53 -32 -56 -60 -4 -36 31 15 36 15 44 3 6 -8 10 -27
10 -42 0 -21 5 -28 19 -28 30 0 32 -13 10 -56 -17 -33 -19 -51 -14 -114 5 -59
3 -79 -9 -95 -21 -28 -42 -8 -26 26 8 17 8 43 2 84 -8 47 -7 66 4 88 17 31 11
47 -15 47 -21 0 -42 -70 -29 -94 5 -9 6 -21 3 -26 -10 -16 -35 -11 -42 8 -3 9
-15 27 -25 39 -16 17 -18 25 -8 43 10 18 8 26 -9 44 -19 20 -20 24 -6 36 18
15 19 33 3 61 -12 18 -9 25 29 59 37 32 41 39 28 50 -8 7 -15 19 -15 26 0 22
-21 16 -27 -6 -3 -12 -11 -19 -17 -17 -21 7 -17 34 11 62 18 18 24 29 16 32
-20 7 -16 22 13 48 32 29 44 31 44 8z m-1065 -319 c11 -14 37 -43 58 -63 20
-20 37 -42 37 -48 0 -27 -24 -23 -56 8 -34 33 -49 22 -18 -12 15 -16 15 -22
-1 -63 -12 -31 -24 -46 -35 -46 -10 0 -25 -11 -34 -25 -9 -14 -23 -25 -31 -25
-10 0 -15 -10 -15 -30 0 -39 -24 -49 -53 -22 -12 11 -32 23 -44 27 -14 4 -23
14 -23 27 0 15 4 18 18 13 51 -21 52 -20 46 28 -9 64 0 93 32 101 16 4 24 12
21 21 -4 9 5 17 26 24 l31 12 -32 19 c-18 11 -44 20 -58 20 -35 0 -26 20 22
48 47 27 81 22 109 -14z m35 -283 c0 -5 9 -13 20 -16 11 -3 20 -12 20 -19 0
-7 -9 -21 -20 -31 -22 -20 -27 -55 -7 -54 6 0 26 21 42 47 25 38 35 47 57 45
19 -1 29 4 33 18 13 39 45 16 45 -32 0 -11 9 -37 20 -59 28 -55 25 -140 -6
-140 -8 0 -14 -6 -14 -12 -1 -30 -16 -39 -42 -28 -20 10 -31 9 -57 -4 -26 -14
-31 -22 -31 -52 0 -45 -18 -41 -42 9 -16 33 -23 37 -68 43 -28 4 -52 10 -55
13 -2 4 5 26 16 50 13 31 23 41 34 37 8 -3 22 -9 30 -12 21 -9 30 22 11 41 -8
9 -20 23 -24 32 -12 21 -28 10 -52 -37 -26 -51 -39 -58 -62 -30 -26 32 -24 60
5 60 18 0 26 10 40 50 14 39 26 54 55 70 42 22 52 24 52 11z m916 -18 c7 -10
14 -36 14 -57 0 -22 7 -47 16 -57 15 -17 15 -20 1 -41 -32 -45 -44 -58 -56
-58 -21 0 -101 60 -101 76 0 8 -13 17 -29 20 -37 8 -46 38 -23 84 25 51 46 46
50 -13 3 -40 7 -50 28 -59 14 -7 32 -23 40 -37 11 -20 14 -21 10 -6 -2 11 -7
32 -10 48 -4 18 -13 27 -25 27 -10 0 -22 7 -25 16 -4 11 4 19 29 30 19 8 35
21 35 29 0 21 30 19 46 -2z m-6813 -535 c49 -138 53 -161 32 -181 -35 -35 -54
-20 -90 74 -16 41 -25 83 -25 120 0 69 7 89 30 89 13 0 26 -25 53 -102z m1933
-604 c18 -5 23 -15 26 -56 4 -33 11 -54 22 -60 9 -5 16 -19 16 -31 0 -30 15
-51 30 -42 8 5 10 21 6 45 -9 55 0 70 42 70 43 0 72 -24 72 -60 0 -21 10 -34
42 -55 l42 -28 -22 -17 c-30 -24 -28 -28 16 -35 81 -14 101 -25 128 -71 14
-24 30 -44 35 -44 17 0 49 -40 49 -60 0 -13 -7 -20 -20 -20 -11 0 -20 -2 -20
-5 0 -3 9 -14 20 -25 27 -27 25 -40 -4 -40 -16 0 -32 11 -46 30 -25 35 -50 38
-75 10 -21 -23 -20 -24 20 -37 36 -12 47 -43 15 -43 -36 0 -61 20 -80 65 -14
34 -28 48 -56 60 -31 13 -35 18 -30 39 5 19 1 26 -14 31 -11 3 -20 12 -20 20
0 20 -26 25 -47 10 -23 -18 -43 -19 -43 -1 0 7 -15 25 -34 40 -19 14 -38 35
-41 46 -5 16 -12 19 -32 14 -28 -7 -43 7 -43 44 0 15 6 22 18 22 24 0 42 19
42 46 0 29 -25 37 -56 18 -34 -23 -43 -9 -14 21 l23 24 -24 20 c-23 19 -24 19
-5 40 20 22 28 24 62 15z m4984 -483 c0 -22 -20 -52 -85 -126 -62 -70 -85
-104 -85 -124 0 -36 -48 -131 -66 -131 -21 0 -17 27 11 68 14 20 25 49 25 64
0 42 18 78 63 128 23 26 61 70 85 98 24 29 45 52 48 52 2 0 4 -13 4 -29z
m-4667 -90 c4 -5 1 -14 -8 -21 -9 -7 -15 -28 -15 -51 0 -43 2 -44 105 -54 97
-9 119 -9 135 -2 11 5 21 -5 38 -39 12 -26 21 -48 20 -50 -6 -5 -96 22 -109
32 -15 12 -75 34 -92 34 -5 0 -6 -12 -3 -26 6 -24 5 -26 -19 -20 -30 8 -32 -5
-10 -57 21 -50 19 -74 -6 -82 -11 -4 -24 -18 -29 -31 -13 -33 -27 -30 -44 11
-12 29 -20 35 -45 35 -20 0 -34 7 -41 19 -5 11 -19 23 -30 26 -11 3 -20 14
-20 24 0 10 -7 24 -15 31 -18 15 -20 50 -3 50 6 0 22 -10 35 -22 35 -33 47
-13 28 48 -21 70 -19 107 8 131 12 11 29 23 37 26 17 7 71 -2 83 -12z"/>
<path d="M5115 6201 c-3 -10 -4 -23 -3 -29 3 -11 -9 -13 -31 -4 -7 3 -23 0
-33 -7 -16 -10 -26 -10 -50 0 -28 11 -31 10 -53 -17 -13 -16 -29 -41 -36 -56
-10 -24 -8 -30 17 -53 41 -38 95 -59 116 -46 25 16 52 14 87 -6 22 -13 34 -15
39 -7 4 6 17 16 30 23 26 14 29 39 5 48 -33 12 -73 44 -73 60 0 8 14 27 30 41
37 32 38 45 5 60 -35 16 -43 15 -50 -7z"/>
<path d="M1625 6183 c4 -10 15 -37 23 -60 l16 -41 -32 -30 c-25 -24 -32 -38
-32 -69 -1 -21 -7 -49 -15 -63 -16 -28 -20 -130 -5 -130 6 0 10 5 10 10 0 15
46 52 93 75 56 28 64 43 50 107 -12 60 -3 82 24 56 18 -19 23 -99 9 -160 -7
-32 -6 -38 8 -38 9 0 19 6 22 14 3 8 18 16 35 20 36 7 37 24 2 52 l-28 22 24
26 c22 23 23 28 9 43 -33 40 -56 103 -51 143 6 45 3 47 -32 24 -23 -15 -25
-15 -31 0 -5 12 -19 16 -56 16 -44 0 -49 -2 -43 -17z"/>
<path d="M7547 6065 c-9 -8 -17 -20 -20 -27 -3 -10 -9 -11 -26 0 -29 17 -31
16 -31 -19 0 -22 -5 -32 -20 -36 -11 -3 -20 -9 -20 -14 0 -5 -15 -12 -32 -17
-29 -7 -33 -12 -30 -38 2 -28 2 -79 -1 -189 -1 -40 4 -58 26 -90 39 -55 40
-55 32 -7 -6 40 4 57 20 32 10 -16 35 -12 35 5 0 8 -6 25 -12 36 -10 17 -10
23 0 26 20 8 14 22 -19 38 -35 18 -34 19 -48 -15 -10 -25 -10 -24 -10 6 -1 35
11 49 51 59 14 4 36 17 48 31 l23 23 30 -25 c16 -14 34 -23 39 -22 14 5 48 97
38 103 -19 12 -47 92 -43 123 6 35 -6 41 -30 17z"/>
<path d="M3263 5984 c-3 -9 2 -32 12 -50 18 -34 16 -84 -6 -110 -8 -10 -15
-11 -30 -1 -24 15 -39 -3 -39 -45 0 -21 -5 -28 -20 -28 -15 0 -22 11 -31 46
-12 45 -28 62 -48 50 -6 -4 -5 -20 4 -45 7 -22 11 -42 8 -45 -3 -3 -21 1 -40
9 -51 22 -56 19 -51 -25 4 -45 2 -47 -23 -24 -14 12 -22 13 -38 4 -16 -8 -28
-7 -53 6 -32 17 -32 17 -10 27 28 13 28 25 -2 38 -13 6 -30 22 -37 35 -15 29
-35 31 -44 4 -8 -26 -23 -25 -51 1 -12 12 -27 18 -33 14 -19 -11 -39 -71 -34
-98 4 -19 -2 -33 -23 -54 l-28 -28 -13 33 c-14 35 -25 37 -102 23 -43 -9 -67
-29 -52 -44 4 -4 28 -3 52 2 60 14 69 14 69 -4 0 -9 -9 -15 -23 -15 -16 0 -28
-9 -35 -25 -13 -28 -34 -32 -52 -10 -19 23 -27 18 -39 -27 -7 -24 -15 -49 -17
-55 -8 -18 14 -16 32 2 9 8 26 15 39 15 18 0 24 -7 28 -32 3 -18 8 -43 12 -55
5 -17 2 -23 -17 -28 -52 -16 -83 -72 -33 -59 27 7 35 -12 13 -34 -9 -9 -7 -12
10 -12 20 0 21 -3 12 -21 -10 -17 -7 -23 14 -40 14 -11 26 -27 26 -35 0 -8 10
-14 25 -14 27 0 34 -17 10 -26 -8 -4 -15 -13 -15 -21 0 -10 8 -12 33 -8 43 8
71 -17 38 -34 -11 -6 -31 -11 -46 -11 -28 0 -75 -40 -75 -65 0 -16 35 -21 44
-6 7 10 97 41 120 41 9 0 16 5 16 10 0 19 20 10 60 -29 45 -43 50 -61 19 -61
-11 0 -32 -9 -46 -20 -23 -18 -27 -18 -37 -4 -8 10 -23 14 -46 12 -33 -3 -35
-5 -32 -35 4 -37 -10 -42 -46 -17 -22 15 -27 14 -72 -5 -56 -24 -140 -29 -140
-7 0 7 9 25 20 38 17 23 18 38 1 38 -3 0 -19 -11 -35 -25 -16 -14 -33 -25 -38
-25 -6 0 -8 36 -5 85 l5 85 -29 0 c-42 0 -50 27 -16 54 36 29 36 49 1 36 -14
-6 -27 -10 -29 -10 -3 0 -4 21 -3 46 2 39 -2 50 -25 70 -47 40 -95 22 -62 -23
20 -25 18 -33 -5 -33 -22 0 -25 -7 -10 -30 13 -20 -8 -44 -26 -30 -9 8 -18 8
-32 -1 -15 -9 -27 -9 -52 0 -48 16 -58 0 -26 -42 15 -19 29 -51 33 -70 4 -30
0 -40 -29 -71 -31 -32 -36 -46 -42 -104 -6 -62 -4 -68 17 -87 13 -11 27 -28
30 -38 4 -10 20 -22 35 -28 22 -7 32 -20 41 -50 14 -45 29 -47 49 -6 17 35 38
34 47 0 3 -15 17 -40 31 -56 28 -33 30 -50 9 -71 -17 -17 -20 -56 -4 -56 6 0
24 13 40 29 31 32 39 85 18 119 -9 15 -6 28 14 65 19 38 23 57 19 94 -5 45 -5
46 22 41 14 -3 26 -1 26 5 0 5 15 7 35 4 19 -3 37 -1 41 4 3 6 25 7 52 4 34
-5 53 -14 69 -33 13 -15 23 -23 23 -19 0 4 10 2 23 -5 20 -11 37 -14 130 -21
21 -2 27 -7 27 -24 0 -30 14 -29 34 2 16 24 49 34 59 18 3 -5 -2 -27 -10 -51
-25 -77 -2 -151 27 -82 19 47 37 37 52 -31 7 -33 18 -61 23 -62 6 -1 11 29 13
71 2 56 6 72 18 72 23 0 45 -74 59 -202 7 -60 19 -75 29 -35 3 13 15 36 27 50
l20 27 31 -30 c16 -17 40 -30 54 -30 13 0 24 1 24 3 -1 14 -30 158 -36 176 -6
19 -4 22 12 19 11 -2 22 -17 27 -35 7 -22 19 -35 38 -42 22 -7 29 -16 29 -35
0 -28 26 -49 73 -60 35 -8 43 -29 28 -72 -9 -26 -9 -38 0 -56 10 -19 8 -25
-25 -55 -35 -33 -40 -34 -104 -31 -56 3 -67 0 -70 -14 -2 -11 10 -24 37 -37
45 -24 60 -54 38 -79 -24 -27 -18 -105 11 -126 32 -24 45 -11 38 38 -8 53 -8
73 0 118 8 48 24 61 57 49 48 -19 45 -38 -13 -71 -13 -7 -12 -12 5 -32 11 -13
31 -44 45 -70 19 -37 30 -48 48 -48 16 0 40 -17 72 -51 26 -29 52 -49 58 -45
6 4 23 4 37 0 19 -5 25 -13 25 -33 0 -32 16 -51 45 -51 12 0 38 -16 59 -35 21
-19 42 -35 47 -35 5 0 13 -9 20 -21 8 -17 7 -31 -6 -65 -30 -78 3 -104 36 -29
11 25 25 45 30 45 7 0 8 12 4 30 -6 28 -5 30 24 30 36 0 39 12 11 47 -13 17
-20 41 -20 71 0 38 -5 49 -36 78 -20 19 -40 50 -45 69 -10 34 -31 46 -44 25
-9 -15 -55 -12 -55 3 0 8 9 22 20 32 39 35 16 129 -39 161 -43 25 -51 61 -21
86 19 15 22 25 17 60 -3 23 -1 50 4 61 14 24 -13 67 -42 67 -18 0 -20 -4 -14
-30 8 -35 -7 -60 -36 -60 -20 0 -33 29 -23 53 3 9 -4 32 -15 51 -17 27 -19 39
-11 61 15 39 13 43 -27 62 -26 13 -41 28 -48 49 -6 18 -29 52 -52 77 -28 30
-40 51 -37 64 3 11 -4 27 -20 42 -14 14 -26 31 -26 38 0 8 -22 23 -49 34 -29
13 -53 30 -60 45 -6 13 -22 29 -36 36 -28 13 -33 36 -10 44 9 4 25 -4 40 -20
13 -14 31 -26 39 -26 9 0 21 -9 28 -20 19 -31 95 -72 118 -65 22 7 27 40 8 51
-7 4 -28 10 -48 14 -53 8 -52 39 4 85 28 23 51 53 61 80 15 39 46 65 76 65 6
0 26 12 45 27 29 22 37 24 44 13 5 -8 5 -19 1 -25 -5 -5 -5 -19 0 -30 4 -11 8
-33 8 -48 1 -24 5 -28 24 -25 19 3 22 9 22 53 0 57 12 61 57 18 l27 -26 46 17
c33 13 45 23 45 38 0 18 -4 20 -43 14 -44 -7 -44 -7 -85 47 -23 30 -42 57 -42
60 0 11 35 8 47 -4 19 -19 74 27 67 55 -4 17 1 25 20 34 66 30 -12 44 -89 17
-53 -19 -55 -19 -55 11 0 33 17 64 36 64 8 0 19 11 24 25 5 14 16 28 24 31 14
6 36 54 36 80 0 26 -20 14 -37 -21 -23 -48 -37 -39 -41 26 -3 49 -6 57 -36 77
-36 25 -56 28 -74 10 -21 -21 -26 1 -9 37 9 20 17 47 17 60 0 20 -5 25 -25 25
-20 0 -25 -5 -25 -25 0 -26 -31 -65 -52 -65 -7 0 -29 -17 -50 -37 -41 -40 -58
-39 -40 2 7 14 12 36 12 49 0 13 9 35 20 49 26 33 25 37 -9 37 -23 0 -36 -9
-58 -40 -15 -22 -31 -40 -35 -40 -5 0 -8 18 -8 41 0 22 -5 49 -10 60 -13 23
-58 25 -67 3z"/>
<path d="M2798 4563 c-30 -36 -30 -43 4 -75 32 -30 94 -55 106 -43 3 3 1 15
-6 25 -15 25 -1 26 21 2 21 -23 21 -31 0 -54 -19 -21 -5 -45 21 -35 12 5 16
22 16 75 0 77 -9 92 -57 92 -21 0 -36 6 -39 15 -8 20 -48 19 -66 -2z"/>
<path d="M2916 4191 c-9 -10 -20 -35 -23 -56 -4 -25 -13 -39 -28 -45 -12 -5
-25 -17 -29 -26 -6 -16 -8 -16 -16 -4 -16 25 -11 36 21 51 l30 14 -20 27 c-12
14 -21 31 -21 37 0 16 -35 13 -49 -3 -10 -11 -10 -24 0 -54 11 -37 9 -45 -15
-93 -14 -29 -26 -59 -26 -67 0 -20 140 -170 172 -183 46 -19 51 -6 44 97 -7
88 -5 98 19 153 29 65 27 88 -6 70 -22 -11 -49 -6 -49 10 0 6 18 20 40 31 43
22 47 29 28 48 -18 18 -53 15 -72 -7z"/>
<path d="M4216 3827 c-24 -18 -26 -82 -2 -105 16 -16 18 -16 31 2 13 17 16 16
54 -14 43 -35 71 -35 71 -1 0 13 12 27 29 36 17 8 33 20 36 25 12 19 -17 40
-54 40 -20 0 -49 7 -65 15 -35 18 -76 19 -100 2z"/>
<path d="M3608 3773 c-57 -62 -63 -104 -17 -123 28 -12 31 -17 26 -47 -3 -18
-2 -33 2 -33 13 0 48 55 55 87 4 17 14 37 22 44 20 16 18 35 -8 69 -27 37 -47
38 -80 3z"/>
<path d="M3473 3275 c-45 -19 -59 -49 -34 -72 44 -41 79 -71 88 -74 5 -2 28
-32 52 -66 24 -35 48 -63 53 -63 18 0 20 31 3 56 -20 31 -14 50 19 65 38 18
41 39 7 52 -23 8 -30 19 -35 48 -6 39 -20 49 -66 49 -16 0 -32 5 -35 10 -8 13
-13 12 -52 -5z"/>
</g>
</svg>
